<?xml version="1.0" encoding="utf-8"?>
<!-- Generator: Adobe Illustrator 21.0.1, SVG Export Plug-In . SVG Version: 6.00 Build 0)  -->
<!DOCTYPE svg PUBLIC "-//W3C//DTD SVG 1.0//EN" "http://www.w3.org/TR/2001/REC-SVG-20010904/DTD/svg10.dtd">
<svg version="1.0" xmlns="http://www.w3.org/2000/svg" xmlns:xlink="http://www.w3.org/1999/xlink" x="0px" y="0px"
	 viewBox="0 0 960 960" style="enable-background:new 0 0 960 960;" xml:space="preserve">
<style type="text/css">
	.st0{display:none;}
	.st1{display:inline;fill:#00979C;}
	.st2{display:inline;fill:none;stroke:#FFFFFF;stroke-width:60;}
	.st3{display:inline;fill:none;stroke:#FFFFFF;stroke-width:73.7493;}
	.st4{display:inline;fill:none;stroke:#FFFFFF;stroke-width:9.8953;}
	.st5{display:inline;fill:none;stroke:#FFFFFF;stroke-width:15.9621;}
	.st6{display:inline;}
	.st7{display:inline;fill:#F1F1F1;}
	.st8{display:inline;fill:#F05A24;}
	.st9{display:inline;fill:#0000FF;}
	.st10{fill:#231F20;}
	.st11{font-family:'MyriadPro-Regular';}
	.st12{font-size:506.4846px;}
	.st13{fill:#00979C;}
	.st14{fill:none;stroke:#E5AD24;stroke-width:20;stroke-miterlimit:10;}
	.st15{fill:#E5AD24;}
	.st16{fill:none;stroke:#E47128;stroke-width:20;stroke-miterlimit:10;}
	.st17{fill:#E47128;}
	.st18{fill:none;stroke:#FFFFFF;stroke-width:20;stroke-miterlimit:10;}
	.st19{fill:#FFFFFF;}
	.st20{stroke:#000000;stroke-width:14;stroke-miterlimit:10;}
	.st21{fill:none;stroke:#FFFFFF;stroke-width:27.0536;}
	.st22{fill:none;stroke:#FFFFFF;stroke-width:9.8953;}
	.st23{display:inline;fill:#FFFFFF;}
	.st24{display:inline;fill:#8C7965;}
	.st25{display:inline;fill:#E47128;}
	.st26{display:inline;fill:#62AEB2;}
	.st27{display:inline;fill:#E5AD24;}
	.st28{display:inline;fill:#00878F;}
</style>
<g id="Layer_2" class="st0">
	<rect class="st1" width="960" height="960"/>
	<path id="path6_1_" class="st3" d="M82,309.8c0,95,80.1,172.1,178.9,172.1c119.9,6.3,171.8-84.6,227.1-174.5
		c52.5-85.2,108-169.6,227.7-169.6c98.8,0,178.9,77,178.9,172.1"/>
	<line class="st4" x1="10" y1="310" x2="950" y2="310"/>
	<line class="st5" x1="480.6" y1="10" x2="480.6" y2="610"/>
</g>
<g id="_x33_dOuter" class="st0">
	<polygon class="st6" points="480,562 722.9,603.5 480,730 237.1,603.5 	"/>
	<polygon class="st7" points="480,396 717.8,354.4 480,231 242.2,354.4 	"/>
	<polygon class="st8" points="722.9,603.5 480,730 480,231 722.9,357 	"/>
	<polygon class="st9" points="237.1,356.5 480,230 480,730 237.1,603.5 	"/>
</g>
<g id="Layer_2_copy" class="st0">
	<text transform="matrix(1 0 0 1 378 640.7031)" class="st10 st11 st12">Z</text>
</g>
<g id="Directions">
	<rect class="st13" width="960" height="960"/>
	<g>
		<g>
			<g>
				<path class="st14" d="M759.1,509.2c-99.7-17.7-194.4-47.5-282.1-87.4"/>
				<g>
					<polygon class="st15" points="726.3,445.6 935.4,527.4 713.5,561.1 					"/>
				</g>
			</g>
		</g>
		<g>
			<g>
				<path class="st16" d="M203.6,509.3c98.5-17.5,192.1-46.9,278.8-86.2"/>
				<g>
					<polygon class="st17" points="249.2,561.3 27.3,527.4 236.4,445.8 					"/>
				</g>
			</g>
		</g>
		<g>
			<path d="M482.4,30c0,131,0,262,0,393.1"/>
			<g>
				<path class="st18" d="M482.4,207.2c0,72,0,143.9,0,215.9"/>
				<g>
					<polygon class="st19" points="424.3,246.8 482.4,30 540.5,246.8 					"/>
				</g>
			</g>
		</g>
		<circle class="st20" cx="480.9" cy="428.1" r="35.3"/>
	</g>
	<path id="path6_7_" class="st21" d="M46.6,772.6c14.4,36.6,22.3,47.2,31.3,64s22.2,31.8,38.3,44.5s43.4,25.3,69.6,29.3
		s51.3-0.6,63.2-22.2c21-38.2,45.1-33.4,68.4-22.4s45.6,28.2,63.1,14.7c17.4-13.5,37.7-27.3,54.7-43.4c17-16.1,30.6-34.4,34.7-57
		c6.3-34.5,62.8-66.1,73.1,8.9c38.2-113.5,34.4-104.9,55.6-40.4c6.8,20.8,29.4,26.1,44.1,68.3c14.7,42.2,32.5,87.7,62.4,87.7
		c24.7,0,46.4-61.7,65.9-120.2s36.9-113.9,53.1-101.2c16.2,12.7,29.3,27.7,38.3,44.5S906,781.7,906,801"/>
	<line class="st22" x1="10" y1="817" x2="950" y2="817"/>
</g>
<g id="Logo" class="st0">
</g>
<g id="Layer_1_copy" class="st0">
</g>
<g id="Layer_5" class="st0">
</g>
</svg>
